<?xml version="1.0" encoding="UTF-8"?>
<svg version="1.1" xmlns="http://www.w3.org/2000/svg" width="1024" height="1024">
<path d="M0 0 C1.43920029 0.20132852 2.87849543 0.4019799 4.31787109 0.60205078 C36.97921687 5.19463857 68.71471907 12.52281357 100 23 C101.04349609 23.34611328 102.08699219 23.69222656 103.16210938 24.04882812 C152.13692665 40.45679297 198.68883055 65.06331275 240 96 C240.73089844 96.54543457 241.46179688 97.09086914 242.21484375 97.65283203 C254.45729809 106.81584652 266.18719403 116.42745883 277.48828125 126.734375 C278.84254709 127.95595228 280.20281147 129.17164314 281.5949707 130.34985352 C287.97099118 135.7802813 293.84714336 141.69588921 299.75463867 147.62426758 C301.55862085 149.43360933 303.36788665 151.23754319 305.17773438 153.04101562 C310.99759646 158.8572224 316.70449464 164.6949497 322 171 C322.87655981 172.01002188 323.75411275 173.01918302 324.6328125 174.02734375 C331.49423936 182.03951147 337.96789762 190.30198758 344.29980469 198.73779297 C345.43452676 200.24760554 346.5732152 201.75444516 347.71582031 203.25830078 C380.77856884 246.78500783 405.73962867 296.22643978 423 348 C423.35400879 349.05541992 423.70801758 350.11083984 424.07275391 351.19824219 C433.9801251 381.07377822 440.3773754 411.75679901 444.70574951 442.89654541 C444.97709792 444.83628411 445.25975828 446.77443144 445.54345703 448.71240234 C451.15755797 488.52401588 450.81852575 533.25314352 445 573 C444.79867148 574.43920029 444.5980201 575.87849543 444.39794922 577.31787109 C439.80536143 609.97921687 432.47718643 641.71471907 422 673 C421.65388672 674.04349609 421.30777344 675.08699219 420.95117188 676.16210938 C404.54320703 725.13692665 379.93668725 771.68883055 349 813 C348.45456543 813.73089844 347.90913086 814.46179688 347.34716797 815.21484375 C338.18415348 827.45729809 328.57254117 839.18719403 318.265625 850.48828125 C317.04404772 851.84254709 315.82835686 853.20281147 314.65014648 854.5949707 C309.2197187 860.97099118 303.30411079 866.84714336 297.37573242 872.75463867 C295.56639067 874.55862085 293.76245681 876.36788665 291.95898438 878.17773438 C286.1427776 883.99759646 280.3050503 889.70449464 274 895 C272.98997812 895.87655981 271.98081698 896.75411275 270.97265625 897.6328125 C262.96048853 904.49423936 254.69801242 910.96789762 246.26220703 917.29980469 C244.75239446 918.43452676 243.24555484 919.5732152 241.74169922 920.71582031 C198.21499217 953.77856884 148.77356022 978.73962867 97 996 C95.94458008 996.35400879 94.88916016 996.70801758 93.80175781 997.07275391 C63.92622178 1006.9801251 33.24320099 1013.3773754 2.10345459 1017.70574951 C0.16371589 1017.97709792 -1.77443144 1018.25975828 -3.71240234 1018.54345703 C-43.52401588 1024.15755797 -88.25314352 1023.81852575 -128 1018 C-129.43920029 1017.79867148 -130.87849543 1017.5980201 -132.31787109 1017.39794922 C-164.97921687 1012.80536143 -196.71471907 1005.47718643 -228 995 C-229.04349609 994.65388672 -230.08699219 994.30777344 -231.16210938 993.95117188 C-280.13692665 977.54320703 -326.68883055 952.93668725 -368 922 C-369.09634766 921.18184814 -369.09634766 921.18184814 -370.21484375 920.34716797 C-382.45729809 911.18415348 -394.18719403 901.57254117 -405.48828125 891.265625 C-406.84254709 890.04404772 -408.20281147 888.82835686 -409.5949707 887.65014648 C-415.97099118 882.2197187 -421.84714336 876.30411079 -427.75463867 870.37573242 C-429.55862085 868.56639067 -431.36788665 866.76245681 -433.17773438 864.95898438 C-438.99759646 859.1427776 -444.70449464 853.3050503 -450 847 C-450.87655981 845.98997812 -451.75411275 844.98081698 -452.6328125 843.97265625 C-459.49423936 835.96048853 -465.96789762 827.69801242 -472.29980469 819.26220703 C-473.43452676 817.75239446 -474.5732152 816.24555484 -475.71582031 814.74169922 C-508.77856884 771.21499217 -533.73962867 721.77356022 -551 670 C-551.35400879 668.94458008 -551.70801758 667.88916016 -552.07275391 666.80175781 C-561.9801251 636.92622178 -568.3773754 606.24320099 -572.70574951 575.10345459 C-572.97709792 573.16371589 -573.25975828 571.22556856 -573.54345703 569.28759766 C-579.15755797 529.47598412 -578.81852575 484.74685648 -573 445 C-572.79867148 443.56079971 -572.5980201 442.12150457 -572.39794922 440.68212891 C-567.80536143 408.02078313 -560.47718643 376.28528093 -550 345 C-549.65388672 343.95650391 -549.30777344 342.91300781 -548.95117188 341.83789062 C-532.54320703 292.86307335 -507.93668725 246.31116945 -477 205 C-476.45456543 204.26910156 -475.90913086 203.53820312 -475.34716797 202.78515625 C-466.18415348 190.54270191 -456.57254117 178.81280597 -446.265625 167.51171875 C-445.04404772 166.15745291 -443.82835686 164.79718853 -442.65014648 163.4050293 C-437.2197187 157.02900882 -431.30411079 151.15285664 -425.37573242 145.24536133 C-423.56639067 143.44137915 -421.76245681 141.63211335 -419.95898438 139.82226562 C-414.1427776 134.00240354 -408.3050503 128.29550536 -402 123 C-400.98997812 122.12344019 -399.98081698 121.24588725 -398.97265625 120.3671875 C-390.96048853 113.50576064 -382.69801242 107.03210238 -374.26220703 100.70019531 C-372.75239446 99.56547324 -371.24555484 98.4267848 -369.74169922 97.28417969 C-326.21499217 64.22143116 -276.77356022 39.26037133 -225 22 C-223.94458008 21.64599121 -222.88916016 21.29198242 -221.80175781 20.92724609 C-191.92622178 11.0198749 -161.24320099 4.6226246 -130.10345459 0.29425049 C-128.16371589 0.02290208 -126.22556856 -0.25975828 -124.28759766 -0.54345703 C-84.47598412 -6.15755797 -39.74685648 -5.81852575 0 0 Z " fill="#0E0F7F" transform="translate(576,3)"/>
<path d="M0 0 C9.34374755 7.95212558 9.34374755 7.95212558 10.5546875 13.1484375 C10.88631576 20.11263087 8.90522909 24.89671846 4.9375 30.5 C4.19306641 31.55767578 4.19306641 31.55767578 3.43359375 32.63671875 C-0.79971833 38.31853761 -5.62103024 43.47604858 -10.4375 48.66015625 C-12.51850256 50.91147896 -14.55743962 53.18164893 -16.5625 55.5 C-29.79601555 70.68239432 -43.84862676 83.55312519 -60.0625 95.5 C-60.76036621 96.01739746 -61.45823242 96.53479492 -62.17724609 97.06787109 C-85.45719447 114.24017314 -110.85615495 126.80830076 -138.0625 136.5 C-138.76632812 136.75120605 -139.47015625 137.00241211 -140.1953125 137.26123047 C-149.35165226 140.495124 -158.6189622 143.24132078 -168.0625 145.5 C-168.75811035 145.66886719 -169.4537207 145.83773437 -170.17041016 146.01171875 C-197.06867581 152.38440961 -224.56566203 153.15561027 -252.0625 152.5 C-253.44308594 152.4688208 -253.44308594 152.4688208 -254.8515625 152.43701172 C-265.36281568 152.14812345 -275.62114585 150.64743014 -285.96484375 148.85546875 C-287.78526218 148.54698071 -289.61106281 148.27058329 -291.4375 148 C-297.88499382 147.03973496 -304.00645448 145.49004981 -310.25 143.62109375 C-312.91378638 142.83778771 -315.56286258 142.09978103 -318.25 141.41015625 C-364.09396161 129.53925187 -407.21177851 103.428216 -441.44482422 71.00732422 C-443.06529202 69.49739844 -444.71494879 68.0281687 -446.37890625 66.56640625 C-453.24109624 60.49596857 -458.97811034 54.1331355 -464.49609375 46.82421875 C-466.79806407 43.78873925 -469.28134533 40.9803335 -471.875 38.1875 C-478.06187582 31.45635682 -483.47394502 25.06015588 -483.265625 15.546875 C-482.6335423 9.17742626 -478.50961077 5.80454596 -473.90234375 1.91796875 C-469.89661136 -1.16925176 -466.10506799 -1.02188932 -461.1640625 -0.95703125 C-453.76730794 0.13291873 -449.98794679 6.43241461 -445.75 12.0625 C-443.76664018 14.8343761 -442.06908469 17.48671122 -440.5546875 20.54296875 C-434.86438298 31.81930519 -424.28297037 40.89440925 -414.796875 48.9765625 C-413.0625 50.5 -413.0625 50.5 -410.5 53.1875 C-408.16038319 55.40713646 -405.87443504 56.77533042 -403.05078125 58.29296875 C-400.70228513 59.71867661 -398.67924379 61.37333309 -396.5625 63.125 C-367.77842604 86.56904214 -331.96134125 102.76876763 -296.0625 111.5 C-295.09135254 111.74371338 -294.12020508 111.98742676 -293.11962891 112.23852539 C-262.17241928 119.75321307 -228.36328853 119.58758947 -197.0625 114.5 C-195.59386755 114.28046216 -194.12512486 114.06166001 -192.65625 113.84375 C-188.43055161 113.18761665 -184.24719704 112.37859944 -180.0625 111.5 C-178.77351807 111.23243896 -178.77351807 111.23243896 -177.45849609 110.95947266 C-131.06033189 101.04658403 -86.96684942 77.67154648 -53.0625 44.5 C-52.27101563 43.75878906 -51.47953125 43.01757812 -50.6640625 42.25390625 C-42.71069953 34.64937499 -36.26394818 25.7755095 -29.68359375 16.99609375 C-29.1122168 16.238125 -28.54083984 15.48015625 -27.95214844 14.69921875 C-26.84572314 13.22906327 -25.74573014 11.75403699 -24.65332031 10.2734375 C-18.47309186 2.05392862 -10.75493205 -5.26772182 0 0 Z " fill="#F3DEAE" transform="translate(748.0625,644.5)"/>
<path d="M0 0 C1.18807251 0.00737183 1.18807251 0.00737183 2.40014648 0.01489258 C14.21377878 0.24993577 24.68454816 3.62605217 33.25 12 C34.9429742 13.76743371 36.15495543 15.12241085 37.25 17.3125 C37.80945313 16.81621094 38.36890625 16.31992187 38.9453125 15.80859375 C54.74900739 2.41864647 70.91147524 -1.17726455 91.25 0.3125 C102.95003421 1.89192444 111.4038609 8.41641718 118.8125 17.265625 C123.84777671 24.43542118 124.39994625 32.63312276 124.39526367 41.09423828 C124.39862228 41.96797089 124.4019809 42.84170349 124.40544128 43.74191284 C124.41491995 46.62222728 124.41689249 49.50248345 124.41796875 52.3828125 C124.4211822 54.38630192 124.42454634 56.3897911 124.42805481 58.39328003 C124.43403743 62.58787582 124.43589547 66.78245103 124.43530273 70.97705078 C124.43520087 76.3586007 124.44888208 81.74001941 124.46607494 87.12153816 C124.47717473 91.25642507 124.47922261 95.39127998 124.47869301 99.52618027 C124.47987506 101.51095916 124.48430941 103.49573883 124.49202538 105.48050308 C124.5017895 108.25028045 124.49896202 111.01976907 124.49291992 113.78955078 C124.49853943 114.6124762 124.50415894 115.43540161 124.50994873 116.28326416 C124.48842542 120.15317058 124.4473742 122.01643871 122.25 125.3125 C119.30078125 125.68481445 119.30078125 125.68481445 115.5625 125.67578125 C114.90419189 125.67627975 114.24588379 125.67677826 113.56762695 125.67729187 C112.17558779 125.67495104 110.78354443 125.6652218 109.39160156 125.64868164 C107.2580795 125.62508934 105.12580681 125.6281196 102.9921875 125.63476562 C92.52909311 125.59159311 92.52909311 125.59159311 90.25 123.3125 C89.99171448 120.40588379 89.99171448 120.40588379 89.97875977 116.63476562 C89.97353302 115.94827942 89.96830627 115.26179321 89.96292114 114.55450439 C89.95266651 113.06055492 89.94689819 111.56656957 89.94503975 110.07258606 C89.94137787 107.70036197 89.92465177 105.3285567 89.90428162 102.9564209 C89.84888511 96.21061035 89.81833812 89.46473535 89.79370117 82.71875 C89.77772345 78.59251923 89.74738662 74.46657907 89.70893669 70.34049988 C89.69736275 68.77462376 89.69135701 67.20869537 89.69125557 65.64277649 C89.69050032 57.07830841 89.30732562 49.42765423 86.25 41.3125 C85.940625 40.1575 85.63125 39.0025 85.3125 37.8125 C84.47979496 35.2179763 84.47979496 35.2179763 82.375 34.0625 C81.67375 33.815 80.9725 33.5675 80.25 33.3125 C79.70472656 32.97734375 79.15945313 32.6421875 78.59765625 32.296875 C73.21935233 30.0417459 65.97707538 30.37034594 60.25 31.3125 C57.37822186 32.60724663 55.26061779 33.99090369 52.8515625 36 C51.25 37.3125 51.25 37.3125 49.25 37.3125 C48.940625 38.26125 48.63125 39.21 48.3125 40.1875 C47.25 43.3125 47.25 43.3125 46.25 45.3125 C46.14936554 47.61905815 46.11437163 49.92856063 46.1081543 52.23730469 C46.10294266 53.30593246 46.10294266 53.30593246 46.09762573 54.39614868 C46.09026616 55.9457801 46.08492185 57.49542209 46.08133507 59.04506683 C46.07417281 61.50012262 46.05850716 63.95497817 46.03999329 66.40997314 C45.98751954 73.39112564 45.939567 80.37217026 45.92407227 87.35351562 C45.91397581 91.62245854 45.88460694 95.89090036 45.84275246 100.15964508 C45.83045836 101.78464208 45.8253183 103.40970992 45.82755089 105.03475189 C45.82991091 107.31374812 45.80768614 109.5913146 45.7800293 111.87011719 C45.77122993 113.81298615 45.77122993 113.81298615 45.76225281 115.79510498 C45.15970879 119.93248653 43.91988766 122.12368812 41.25 125.3125 C38.16552734 126.02539062 38.16552734 126.02539062 34.5859375 125.96875 C33.29945313 125.9584375 32.01296875 125.948125 30.6875 125.9375 C30.02105469 125.916875 29.35460937 125.89625 28.66796875 125.875 C26.62426013 125.81247737 24.58363416 125.79303994 22.5390625 125.78125 C12.55841837 125.62091837 12.55841837 125.62091837 10.25 123.3125 C9.9984436 120.41261292 9.9984436 120.41261292 9.99462891 116.65063477 C9.99100845 115.96575485 9.987388 115.28087494 9.98365784 114.57524109 C9.97675508 113.08455806 9.97426004 111.59384972 9.97560501 110.10315132 C9.97657027 107.73484926 9.96362405 105.3670012 9.94662476 102.99876404 C9.90038282 96.26394291 9.87579301 89.52916376 9.86914062 82.79418945 C9.86409015 78.6743772 9.83965143 74.55503085 9.80381393 70.43537712 C9.79408583 68.87311556 9.79164538 67.31078927 9.79698563 65.74850655 C9.83347371 54.53632031 8.71289973 44.85306384 2.25 35.3125 C-4.764843 31.40037602 -12.89890744 31.41573467 -20.75 32.3125 C-25.54589062 34.59820106 -28.7681648 37.97269527 -31.75 42.3125 C-32.69240924 45.07014351 -32.69240924 45.07014351 -32.75 47.3125 C-33.41 47.3125 -34.07 47.3125 -34.75 47.3125 C-34.58610275 47.99424286 -34.42220551 48.67598572 -34.25334167 49.37838745 C-33.67771552 52.73386544 -33.65769558 55.85306377 -33.6965332 59.25830078 C-33.70612564 60.27629257 -33.70612564 60.27629257 -33.71591187 61.31484985 C-33.73859414 63.54594074 -33.7692355 65.7768305 -33.80078125 68.0078125 C-33.82002429 69.56289445 -33.83907974 71.11797874 -33.85795593 72.67306519 C-33.89886119 75.92614897 -33.94407771 79.17914044 -33.99194336 82.43212891 C-34.05267525 86.60286078 -34.09952247 90.77362177 -34.14277363 94.94456673 C-34.17810221 98.15309026 -34.22234071 101.36144532 -34.26912498 104.5698204 C-34.29017668 106.1079807 -34.30807715 107.64618745 -34.3227787 109.18442154 C-34.34432237 111.33169575 -34.37822912 113.47843341 -34.4152832 115.62548828 C-34.43979301 117.45818771 -34.43979301 117.45818771 -34.46479797 119.32791138 C-34.75 122.3125 -34.75 122.3125 -36.75 125.3125 C-39.59155273 125.68481445 -39.59155273 125.68481445 -43.18359375 125.67578125 C-44.47201172 125.67513672 -45.76042969 125.67449219 -47.08789062 125.67382812 C-47.76053955 125.66552979 -48.43318848 125.65723145 -49.1262207 125.64868164 C-51.17634513 125.62512816 -53.22516565 125.62811465 -55.27539062 125.63476562 C-65.34967286 125.57938476 -65.34967286 125.57938476 -68.75 123.3125 C-69.12473011 121.22914124 -69.12473011 121.22914124 -69.1242218 118.60571289 C-69.13123611 117.6129837 -69.13825043 116.62025452 -69.14547729 115.59744263 C-69.13783356 114.50438812 -69.13018982 113.41133362 -69.12231445 112.28515625 C-69.12596512 111.13715546 -69.12961578 109.98915466 -69.13337708 108.80636597 C-69.14151077 104.99576211 -69.12784867 101.18557973 -69.11328125 97.375 C-69.11276298 94.73706055 -69.11327938 92.09912071 -69.11479187 89.46118164 C-69.11567537 83.92621792 -69.10458283 78.39137654 -69.08618164 72.85644531 C-69.06501308 66.45234116 -69.06150377 60.0484163 -69.0677436 53.64428425 C-69.07343346 47.49011379 -69.0676922 41.33601677 -69.05657005 35.18185425 C-69.05270978 32.55988826 -69.05157324 29.93791684 -69.0531559 27.31594849 C-69.05352509 23.65714094 -69.04094713 19.99860992 -69.0246582 16.33984375 C-69.02713562 15.24678925 -69.02961304 14.15373474 -69.03216553 13.02755737 C-69.02508072 12.03482819 -69.01799591 11.042099 -69.01069641 10.01928711 C-69.00864354 9.15355576 -69.00659067 8.2878244 -69.00447559 7.39585876 C-68.75 5.3125 -68.75 5.3125 -66.75 3.3125 C-63.89257812 3.05371094 -63.89257812 3.05371094 -60.28125 3.046875 C-58.98832031 3.04429687 -57.69539063 3.04171875 -56.36328125 3.0390625 C-55.68861816 3.04325195 -55.01395508 3.04744141 -54.31884766 3.05175781 C-52.25783843 3.0624593 -50.19770081 3.05186057 -48.13671875 3.0390625 C-46.84378906 3.04164063 -45.55085938 3.04421875 -44.21875 3.046875 C-43.02701172 3.04913086 -41.83527344 3.05138672 -40.60742188 3.05371094 C-37.75 3.3125 -37.75 3.3125 -35.75 5.3125 C-35.3359375 7.4765625 -35.3359375 7.4765625 -35.125 9.9375 C-35.05023438 10.75476563 -34.97546875 11.57203125 -34.8984375 12.4140625 C-34.84945312 13.04054688 -34.80046875 13.66703125 -34.75 14.3125 C-34.30011719 13.86519531 -33.85023438 13.41789062 -33.38671875 12.95703125 C-24.10266731 4.23113922 -12.70202478 -0.09332762 0 0 Z " fill="#F3DFAE" transform="translate(476.75,475.6875)"/>
<path d="M0 0 C0.96873047 -0.020625 1.93746094 -0.04125 2.93554688 -0.0625 C14.67557573 -0.12600252 25.00278546 4.72937295 33.6875 12.58984375 C45.60579029 24.76598167 48.84953205 38.88660828 48.75854492 55.45141602 C48.75010211 57.78428543 48.77876188 60.11464088 48.81054688 62.44726562 C48.87713568 76.13528589 47.26910729 90.14899557 39.875 102 C39.50568359 102.64453125 39.13636719 103.2890625 38.75585938 103.953125 C36.39262681 107.95055131 33.7417359 111.07601467 30.3125 114.25 C29.76207031 114.78625 29.21164062 115.3225 28.64453125 115.875 C19.2294243 124.39458264 7.17118906 128.83616998 -5.4375 128.6875 C-6.7376001 128.68157837 -6.7376001 128.68157837 -8.06396484 128.67553711 C-16.14159389 128.4964173 -23.40498124 126.89125938 -30.6875 123.25 C-30.71842239 124.10777542 -30.71842239 124.10777542 -30.74996948 124.98287964 C-30.96587927 130.9202146 -31.19509074 136.85692881 -31.43212891 142.79345703 C-31.51889769 145.01077318 -31.60224274 147.228226 -31.68212891 149.44580078 C-31.79736647 152.62834929 -31.92479985 155.8102075 -32.0546875 158.9921875 C-32.10482498 160.48599442 -32.10482498 160.48599442 -32.15597534 162.00997925 C-32.19586578 162.93078278 -32.23575623 163.8515863 -32.27685547 164.80029297 C-32.30794403 165.6130368 -32.33903259 166.42578064 -32.37106323 167.26315308 C-32.6875 169.25 -32.6875 169.25 -34.6875 171.25 C-38.94356609 171.69455788 -43.21442762 171.66415676 -47.4909668 171.67553711 C-49.6142903 171.68743996 -51.73471181 171.73660972 -53.85742188 171.78710938 C-55.20571497 171.79657315 -56.55402593 171.80380841 -57.90234375 171.80859375 C-59.13073975 171.82204834 -60.35913574 171.83550293 -61.62475586 171.84936523 C-64.6875 171.25 -64.6875 171.25 -66.35511208 169.12570286 C-67.92999167 165.72662842 -68.06481244 163.37966069 -68.06845093 159.63938904 C-68.0731309 158.98865435 -68.07781087 158.33791967 -68.08263266 157.66746575 C-68.09456441 155.49481645 -68.08513317 153.32280006 -68.07568359 151.15014648 C-68.07975008 149.58941277 -68.0850924 148.02868193 -68.09161377 146.46795654 C-68.10528289 142.2345761 -68.09999073 138.00141514 -68.09047651 133.76803088 C-68.08287917 129.33762189 -68.08992561 124.90723163 -68.09463501 120.4768219 C-68.10009177 113.03798041 -68.09290244 105.59922831 -68.07861328 98.16040039 C-68.06228091 89.55851505 -68.06757982 80.95684296 -68.0840925 72.35496277 C-68.09770247 64.96970399 -68.0996296 57.58450944 -68.09177649 50.19924217 C-68.08709805 45.78820776 -68.08647992 41.37727363 -68.09638596 36.96624565 C-68.10504647 32.82032653 -68.09905062 28.67468269 -68.08170319 24.52879333 C-68.07773368 23.00660726 -68.07888033 21.48439804 -68.08549118 19.96222115 C-68.09367869 17.88570958 -68.08342032 15.8100824 -68.06845093 13.73362732 C-68.06731985 12.57128791 -68.06618877 11.4089485 -68.06502342 10.21138668 C-67.64697161 6.93208531 -67.01199233 5.56552618 -64.6875 3.25 C-59.37104715 1.47784905 -53.68899572 2.02288533 -48.125 2 C-46.86751953 1.979375 -45.61003906 1.95875 -44.31445312 1.9375 C-42.51717773 1.92976563 -42.51717773 1.92976563 -40.68359375 1.921875 C-39.58200928 1.9125293 -38.4804248 1.90318359 -37.34545898 1.89355469 C-36.46833252 2.01118164 -35.59120605 2.12880859 -34.6875 2.25 C-32.39116176 5.69450737 -32.14733515 8.18812283 -31.6875 12.25 C-30.3675 11.59 -29.0475 10.93 -27.6875 10.25 C-27.6875 9.59 -27.6875 8.93 -27.6875 8.25 C-25.417884 7.10170023 -23.14689222 5.95628022 -20.875 4.8125 C-20.23240234 4.48701172 -19.58980469 4.16152344 -18.92773438 3.82617188 C-12.22771376 0.458804 -7.37094338 0.03846546 0 0 Z " fill="#F2DEAE" transform="translate(870.6875,475.75)"/>
<path d="M0 0 C2.12446941 -0.00219294 4.24842472 -0.02038068 6.37280273 -0.03930664 C7.71980617 -0.04223954 9.06681206 -0.04422503 10.41381836 -0.04516602 C12.25472046 -0.05132935 12.25472046 -0.05132935 14.1328125 -0.05761719 C17.06616211 0.18530273 17.06616211 0.18530273 19.06616211 2.18530273 C20.50631839 8.73957612 20.19293767 15.44048482 20.16381836 22.11889648 C20.16281128 23.2127063 20.1618042 24.30651611 20.1607666 25.43347168 C20.15555765 29.49659279 20.14159646 33.55969888 20.12866211 37.62280273 C20.09772461 51.26624023 20.09772461 51.26624023 20.06616211 65.18530273 C38.54616211 65.18530273 57.02616211 65.18530273 76.06616211 65.18530273 C76.13963867 58.39838867 76.13963867 58.39838867 76.21459961 51.47436523 C76.24997438 48.61236333 76.28592762 45.7503923 76.32397461 42.88842773 C76.38434318 38.34322467 76.44253818 33.79806494 76.48803711 29.25268555 C76.5248426 25.5891532 76.57118904 21.92585573 76.62422562 18.26252365 C76.6427949 16.8630929 76.65789347 15.46361175 76.66950607 14.06410599 C76.68632453 12.10782324 76.71649564 10.15166892 76.74731445 8.19555664 C76.76063812 7.08080963 76.77396179 5.96606262 76.78768921 4.8175354 C77.06616211 2.18530273 77.06616211 2.18530273 79.06616211 0.18530273 C83.2867227 -0.21420342 87.52240405 -0.14368528 91.75976562 -0.13037109 C93.86047886 -0.1272245 95.95976511 -0.15061666 98.06030273 -0.17602539 C99.40209784 -0.17829987 100.74389672 -0.17900119 102.08569336 -0.17797852 C103.9125769 -0.18244995 103.9125769 -0.18244995 105.77636719 -0.18701172 C109.48335836 0.23251789 111.17541779 0.84377039 114.06616211 3.18530273 C114.68978119 6.12572575 114.68978119 6.12572575 114.68762207 9.79664612 C114.69401089 10.4715844 114.70039971 11.14652268 114.70698214 11.84191364 C114.7222713 14.10874987 114.70174809 16.37384904 114.68139648 18.640625 C114.68489652 20.26342347 114.69055377 21.88621851 114.69821167 23.50900269 C114.71248532 27.9202026 114.69537397 32.33078112 114.6719265 36.74192166 C114.65185662 41.35211056 114.65769498 45.96227268 114.66003418 50.57249451 C114.65998057 58.31422204 114.64020057 66.0557058 114.6081543 73.79736328 C114.57124684 82.75712175 114.5624801 91.71656091 114.56945181 100.67638546 C114.57574907 109.28507855 114.5650178 117.89366176 114.54548645 126.50233269 C114.53729614 130.17097472 114.53460588 133.83956072 114.53617859 137.50821114 C114.53705522 141.82484575 114.52290168 146.1411752 114.49695206 150.45772934 C114.48976813 152.0452457 114.48771728 153.63279448 114.49106979 155.22032356 C114.49476321 157.38086506 114.48011372 159.54050529 114.46057129 161.70094299 C114.45497822 163.51748304 114.45497822 163.51748304 114.44927216 165.37072086 C114.32284584 166.29953288 114.19641953 167.2283449 114.06616211 168.18530273 C109.19169389 171.43494821 103.46471793 170.51831025 97.76000977 170.50097656 C95.57379442 170.49781378 93.38892919 170.52129179 91.20288086 170.54663086 C89.81355965 170.54890368 88.4242348 170.54960743 87.03491211 170.54858398 C85.77098633 170.55156494 84.50706055 170.5545459 83.20483398 170.55761719 C80.06616211 170.18530273 80.06616211 170.18530273 78.39701843 169.0619812 C76.4470801 166.31231753 76.66568661 164.13537551 76.63378906 160.78613281 C76.61850159 159.81987221 76.61850159 159.81987221 76.60290527 158.83409119 C76.57274171 156.70758404 76.5635048 154.58152707 76.55444336 152.45483398 C76.53759905 150.97937011 76.51944914 149.5039206 76.50004578 148.02848816 C76.45251218 144.14710989 76.42272485 140.26578989 76.39660645 136.38421631 C76.36157929 131.72596228 76.30455713 127.06793206 76.25121307 122.4098587 C76.17265963 115.33503486 76.12208494 108.26050476 76.06616211 101.18530273 C57.58616211 100.85530273 39.10616211 100.52530273 20.06616211 100.18530273 C20.08936523 104.83108398 20.11256836 109.47686523 20.13647461 114.26342773 C20.14669424 117.20744374 20.15632221 120.15143786 20.16381836 123.09545898 C20.17577177 127.7678685 20.18990959 132.44019959 20.21704102 137.11254883 C20.2387791 140.87969573 20.25073277 144.64675853 20.2559166 148.41396332 C20.25961062 149.85087152 20.26682414 151.28777514 20.27762222 152.72464752 C20.29214911 154.73785408 20.29297914 156.75114534 20.29321289 158.7644043 C20.29765411 159.91023987 20.30209534 161.05607544 20.30667114 162.2366333 C20.07016866 165.1361819 19.67144347 166.78463553 18.06616211 169.18530273 C13.56185358 171.437457 7.3676 170.37114721 2.35327148 170.37060547 C0.07508734 170.37279416 -2.20261432 170.39096077 -4.48071289 170.40991211 C-5.92341956 170.41284566 -7.36612854 170.41483071 -8.80883789 170.41577148 C-10.12625977 170.41988037 -11.44368164 170.42398926 -12.80102539 170.42822266 C-15.93383789 170.18530273 -15.93383789 170.18530273 -17.93383789 168.18530273 C-19.17662888 164.72336329 -19.06502328 161.29823307 -19.07427979 157.6502533 C-19.07725091 156.99558392 -19.08022203 156.34091454 -19.08328319 155.66640669 C-19.09194876 153.47469433 -19.09347658 151.28303672 -19.0949707 149.09130859 C-19.0996002 147.51925032 -19.10462504 145.94719317 -19.11001587 144.37513733 C-19.12312456 140.10671427 -19.12958121 135.83830693 -19.13402653 131.5698669 C-19.13695821 128.90440519 -19.14106308 126.23894778 -19.1455307 123.57348824 C-19.15919825 115.23715356 -19.16886996 106.90082869 -19.17273259 98.56448358 C-19.17721922 88.93423566 -19.19479819 79.30412926 -19.22373319 69.67392439 C-19.24531755 62.23266651 -19.25543504 54.79144857 -19.25677371 47.3501597 C-19.25782358 42.90391096 -19.26377041 38.45779537 -19.28159332 34.01157951 C-19.2980192 29.83287628 -19.30025642 25.65440714 -19.29145432 21.47568321 C-19.29068113 19.94016647 -19.29506354 18.40463742 -19.30491257 16.86915207 C-19.31754846 14.77694199 -19.31180213 12.68557174 -19.30133057 10.59336853 C-19.30279713 9.42143416 -19.30426369 8.2494998 -19.30577469 7.04205227 C-18.93383789 4.18530273 -18.93383789 4.18530273 -17.5983696 2.34729862 C-12.59118557 -1.14817534 -5.85104423 -0.00067901 0 0 Z " fill="#F3DFAD" transform="translate(138.933837890625,430.814697265625)"/>
<path d="M0 0 C10.89008827 9.16449281 19.3179333 21.30959122 21.74609375 35.51953125 C21.96729338 39.89222038 21.93123505 44.26678343 21.93359375 48.64453125 C21.94583984 49.81757812 21.95808594 50.990625 21.97070312 52.19921875 C21.98760404 62.33976631 21.01591049 71.52230039 16.87109375 80.83203125 C16.37867188 81.96253906 15.88625 83.09304688 15.37890625 84.2578125 C13.72305714 87.56554936 11.96082321 90.5560977 9.74609375 93.51953125 C9.08609375 93.51953125 8.42609375 93.51953125 7.74609375 93.51953125 C7.47796875 94.10992188 7.20984375 94.7003125 6.93359375 95.30859375 C3.00675732 102.61974316 -4.24816506 106.59992042 -11.25390625 110.51953125 C-11.95257813 111.009375 -12.65125 111.49921875 -13.37109375 112.00390625 C-21.50075185 116.27803544 -30.02428328 117.02232737 -39.06640625 116.89453125 C-40.11812012 116.88365479 -41.16983398 116.87277832 -42.25341797 116.86157227 C-60.3758683 116.49152686 -75.74976697 111.22339453 -88.6953125 98.2734375 C-95.23028141 91.239616 -99.01041103 83.52140567 -102.25390625 74.51953125 C-102.80691406 73.04419922 -102.80691406 73.04419922 -103.37109375 71.5390625 C-104.99247918 65.64135374 -104.62275293 59.39612782 -104.62890625 53.33203125 C-104.65339844 52.08099609 -104.67789062 50.82996094 -104.703125 49.54101562 C-104.75330015 33.47660581 -98.70285526 19.5827229 -88.25390625 7.51953125 C-87.64675781 6.81699219 -87.03960937 6.11445313 -86.4140625 5.390625 C-65.36379878 -17.29544653 -23.90168732 -18.86291421 0 0 Z " fill="#F1DEAE" transform="translate(372.25390625,487.48046875)"/>
<path d="M0 0 C1.03833984 0.55300781 1.03833984 0.55300781 2.09765625 1.1171875 C11.77700843 6.6534151 17.03623943 15.43146551 20 26 C20.28144016 29.00272942 20.27355895 31.98871528 20.25878906 35.00292969 C20.2622937 35.88816818 20.26579834 36.77340668 20.26940918 37.68547058 C20.27817859 40.59768622 20.27239631 43.50965709 20.265625 46.421875 C20.26697254 48.44875129 20.26891382 50.47562726 20.27142334 52.50250244 C20.2743677 56.74242237 20.27009727 60.98225787 20.26074219 65.22216797 C20.24931892 70.66545665 20.25592964 76.10854873 20.26788712 81.55183029 C20.27509945 85.73300673 20.27282118 89.9141362 20.26763153 94.09531403 C20.26629481 96.10324375 20.26794355 98.11117769 20.27259064 100.11910248 C20.27764874 102.91773361 20.26995711 105.7160415 20.25878906 108.51464844 C20.26283752 109.34894882 20.26688599 110.18324921 20.27105713 111.04283142 C20.22853421 116.77146579 20.22853421 116.77146579 18 119 C13.74325776 119.42159994 9.47175575 119.37159476 5.1965332 119.37060547 C3.07356467 119.37497721 0.95267832 119.41128438 -1.16992188 119.44921875 C-2.51822205 119.45508733 -3.86653211 119.45905645 -5.21484375 119.4609375 C-6.44323975 119.46915527 -7.67163574 119.47737305 -8.93725586 119.48583984 C-12 119 -12 119 -13.88110352 117.14306641 C-15.12467363 114.7612077 -15.63155493 112.65280449 -16 110 C-16.55945313 110.44730469 -17.11890625 110.89460937 -17.6953125 111.35546875 C-30.77898492 121.22081017 -43.96744151 123.75713742 -60 122 C-69.98656593 119.97094745 -78.13942073 114.30248731 -84 106 C-87.94985009 98.35383749 -89.18099888 92.15446507 -89.1875 83.625 C-89.19974609 82.78710938 -89.21199219 81.94921875 -89.22460938 81.0859375 C-89.24718379 71.51438661 -85.87146265 63.38362132 -79.40234375 56.234375 C-72.00164458 49.58599276 -63.6071417 45.35159886 -54 43 C-52.783125 42.66742187 -51.56625 42.33484375 -50.3125 41.9921875 C-45.62324119 40.82453682 -40.92901739 40.32376732 -36.125 39.875 C-35.29097656 39.78863281 -34.45695313 39.70226562 -33.59765625 39.61328125 C-27.71706419 39.04067337 -21.90618008 38.90080263 -16 39 C-16.56692224 37.2238447 -17.15422975 35.45418794 -17.75 33.6875 C-18.07484375 32.70136719 -18.3996875 31.71523438 -18.734375 30.69921875 C-20.49371089 26.94705486 -22.58434193 25.77548916 -26.125 23.8359375 C-38.87357686 20.12915021 -54.5289205 22.55864118 -66.0546875 28.6015625 C-67.91143283 29.64074888 -69.75074511 30.71234913 -71.5625 31.828125 C-74.30905807 33.14858561 -75.99036901 33.38637155 -79 33 C-82.14874039 29.85125961 -81.29476873 26.38099849 -81.32226562 22.08398438 C-81.31743164 20.34084961 -81.31743164 20.34084961 -81.3125 18.5625 C-81.32861328 17.40427734 -81.34472656 16.24605469 -81.36132812 15.05273438 C-81.36197266 13.94349609 -81.36261719 12.83425781 -81.36328125 11.69140625 C-81.36775269 10.16302124 -81.36775269 10.16302124 -81.37231445 8.60375977 C-80.94289742 5.60065641 -80.3803173 4.80054152 -78 3 C-55.20536715 -10.74054092 -23.78592318 -13.35176561 0 0 Z " fill="#F3DFAE" transform="translate(764,482)"/>
<path d="M0 0 C1.29292969 -0.00257813 2.58585938 -0.00515625 3.91796875 -0.0078125 C4.59263184 -0.00362305 5.26729492 0.00056641 5.96240234 0.00488281 C8.02341157 0.0155843 10.08354919 0.00498557 12.14453125 -0.0078125 C13.43746094 -0.00523437 14.73039063 -0.00265625 16.0625 0 C17.25423828 0.00225586 18.44597656 0.00451172 19.67382812 0.00683594 C22.53125 0.265625 22.53125 0.265625 24.53125 2.265625 C24.78293228 4.95806122 24.78293228 4.95806122 24.78521729 8.45300293 C24.78833727 9.09441837 24.79145725 9.73583381 24.79467177 10.39668608 C24.80267756 12.55556526 24.79631828 14.71416537 24.79003906 16.87304688 C24.79274779 18.41687689 24.79630805 19.9607056 24.80065918 21.50453186 C24.8097996 25.70485904 24.80623216 29.90508829 24.79990101 34.10541725 C24.79484954 38.49406836 24.79953008 42.88271088 24.80267334 47.2713623 C24.80631548 54.64234935 24.80150739 62.01329637 24.79199219 69.38427734 C24.78110716 77.91509506 24.78463256 86.44581719 24.795645 94.9766326 C24.80471082 102.29130165 24.80600661 109.60594187 24.80076766 116.92061472 C24.79764407 121.29360427 24.79724924 125.66654884 24.80384064 130.03953552 C24.80960325 134.15005929 24.80563722 138.26045941 24.79405212 142.37096977 C24.79139971 143.88270805 24.79218049 145.39445667 24.79657745 146.90619087 C24.80201161 148.9636851 24.79522525 151.02077864 24.78521729 153.07824707 C24.78446323 154.23157784 24.78370918 155.3849086 24.78293228 156.57318878 C24.53125 159.265625 24.53125 159.265625 22.53125 161.265625 C18.09073683 161.72723813 13.617956 161.58960058 9.15625 161.578125 C7.91101563 161.59423828 6.66578125 161.61035156 5.3828125 161.62695312 C4.1865625 161.62759766 2.9903125 161.62824219 1.7578125 161.62890625 C0.66033691 161.63188721 -0.43713867 161.63486816 -1.56787109 161.63793945 C-4.92890999 161.20656558 -6.0986834 160.6600186 -8.46875 158.265625 C-8.96652794 155.46575832 -8.96652794 155.46575832 -8.96322632 151.99595642 C-8.9716153 150.68211472 -8.98000427 149.36827301 -8.98864746 148.01461792 C-8.97768027 146.55523387 -8.96631431 145.09585277 -8.95458984 143.63647461 C-8.95673529 142.10234758 -8.96061236 140.56822213 -8.96609497 139.03410339 C-8.97580062 134.8646986 -8.9604707 130.69572103 -8.94018888 126.5263679 C-8.92264386 122.16842671 -8.92614245 117.81049922 -8.9269104 113.45252991 C-8.92503652 106.13454014 -8.90765984 98.8167161 -8.88037109 91.4987793 C-8.8489076 83.02984698 -8.83837525 74.56109616 -8.8398422 66.09210962 C-8.84106156 57.95436637 -8.83086241 49.81668243 -8.81425858 41.67895699 C-8.80718515 38.21128438 -8.80353098 34.74363276 -8.80247116 31.27595329 C-8.80046666 27.19576274 -8.78829304 23.11572543 -8.76813889 19.0355854 C-8.76228204 17.53514163 -8.75983953 16.03468022 -8.76099396 14.53422546 C-8.76197076 12.4922371 -8.74946115 10.45025532 -8.73617554 8.40830994 C-8.73282385 7.26365233 -8.72947216 6.11899473 -8.72601891 4.93965054 C-8.18998374 -0.63184177 -4.73589756 0.00896465 0 0 Z " fill="#F5E1AE" transform="translate(631.46875,439.734375)"/>
<path d="M0 0 C5.93266354 4.81540111 10.20802124 11.01063636 11.76171875 18.55859375 C12.01268235 22.61773989 11.99297008 26.67997518 12.01171875 30.74609375 C12.03234375 31.84501953 12.05296875 32.94394531 12.07421875 34.07617188 C12.13229055 46.24947235 8.66973635 55.16694807 0.76171875 64.55859375 C-4.31713619 68.9163131 -10.4613097 68.91820869 -16.86328125 69.05859375 C-17.93823853 69.08711426 -17.93823853 69.08711426 -19.03491211 69.11621094 C-25.41850695 69.03671961 -29.33787513 66.91278403 -34.3125 62.875 C-42.74424109 53.70828874 -43.59274893 43.36175212 -43.73828125 31.43359375 C-43.75689209 30.43263672 -43.77550293 29.43167969 -43.79467773 28.40039062 C-43.7131833 18.76031152 -41.13325842 9.81129441 -35.015625 2.21484375 C-25.7679178 -6.40279989 -10.32914505 -6.65175309 0 0 Z " fill="#10107E" transform="translate(347.23828125,507.44140625)"/>
<path d="M0 0 C2.75 2.3125 2.75 2.3125 5 5 C5.86625 5.886875 6.7325 6.77375 7.625 7.6875 C14.56170673 16.35291283 13.79658944 28.27750788 12.71875 38.7265625 C11.14398697 48.02372118 8.19838304 58.38963568 0.85546875 64.69921875 C-6.71664022 70.00766567 -14.98363339 69.72478831 -24 69 C-28.81548377 68.03427542 -32.82824836 66.90724166 -36 63 C-36.39440918 60.75691223 -36.39440918 60.75691223 -36.41992188 58.10473633 C-36.43583374 57.1097261 -36.45174561 56.11471588 -36.46813965 55.08955383 C-36.46834106 54.01457138 -36.46854248 52.93958893 -36.46875 51.83203125 C-36.47636353 50.72325119 -36.48397705 49.61447113 -36.49182129 48.47209167 C-36.50263607 46.12261202 -36.50546984 43.77308423 -36.50097656 41.42358398 C-36.50000836 37.84341036 -36.54153152 34.26540864 -36.5859375 30.68554688 C-36.59114765 28.40104612 -36.59383264 26.11653794 -36.59375 23.83203125 C-36.61014526 22.76716995 -36.62654053 21.70230865 -36.64343262 20.60517883 C-36.5806719 13.78799918 -35.42801396 9.27643854 -31 4 C-22.27722026 -3.90181224 -10.42138457 -4.91574744 0 0 Z " fill="#10107E" transform="translate(874,507)"/>
<path d="M0 0 C0.93134766 0.00322266 1.86269531 0.00644531 2.82226562 0.00976562 C4.26182617 0.02233398 4.26182617 0.02233398 5.73046875 0.03515625 C6.70951172 0.03966797 7.68855469 0.04417969 8.69726562 0.04882812 C11.10422986 0.06056941 13.51106732 0.07699206 15.91796875 0.09765625 C15.9992386 5.77591847 15.983893 11.42886097 15.60546875 17.09765625 C15.51845703 18.42796875 15.51845703 18.42796875 15.4296875 19.78515625 C14.64309656 23.33982676 12.71063414 24.56144143 9.79296875 26.53515625 C8.84421875 27.05078125 7.89546875 27.56640625 6.91796875 28.09765625 C6.31339844 28.4534375 5.70882812 28.80921875 5.0859375 29.17578125 C-1.6614115 32.73097071 -8.5818873 33.31923658 -16.08203125 32.09765625 C-19.74032209 30.1591758 -22.2304868 27.80074514 -24.08203125 24.09765625 C-24.66566041 18.32833853 -24.94801713 12.56405455 -21.6171875 7.59765625 C-15.84573704 1.95837641 -7.8396818 -0.04809621 0 0 Z " fill="#11117E" transform="translate(733.08203125,544.90234375)"/>
<path d="M0 0 C9.219375 -0.020625 18.43875 -0.04125 27.9375 -0.0625 C32.30923462 -0.07615601 32.30923462 -0.07615601 36.76928711 -0.09008789 C39.06363885 -0.09300681 41.35799111 -0.09555543 43.65234375 -0.09765625 C44.85636841 -0.10277222 46.06039307 -0.10788818 47.30090332 -0.11315918 C48.4377356 -0.11328003 49.57456787 -0.11340088 50.74584961 -0.11352539 C51.73846298 -0.115746 52.73107635 -0.11796661 53.75376892 -0.12025452 C56 0 56 0 57 1 C57.09391296 2.90243762 57.11743658 4.80838459 57.11352539 6.71313477 C57.11344986 7.9343251 57.11337433 9.15551544 57.11329651 10.41371155 C57.10818911 11.75627686 57.10297311 13.09884175 57.09765625 14.44140625 C57.09579199 15.80761158 57.09436813 17.17381757 57.09336853 18.5400238 C57.08954394 22.14201695 57.07971417 25.74397 57.06866455 29.34594727 C57.05844916 33.01903745 57.05387064 36.69213409 57.04882812 40.36523438 C57.03809184 47.57684123 57.02101614 54.788415 57 62 C56.34 62 55.68 62 55 62 C55 42.2 55 22.4 55 2 C37.18 2 19.36 2 1 2 C1 23.45 1 44.9 1 67 C0.67 67 0.34 67 0 67 C0 44.89 0 22.78 0 0 Z " fill="#040473" transform="translate(159,531)"/>
<path d="M0 0 C0.66 0 1.32 0 2 0 C2.02312737 8.06652174 2.04091709 16.13302972 2.05181217 24.19957638 C2.05704014 27.94483037 2.06413622 31.69006176 2.07543945 35.43530273 C2.08627141 39.04681687 2.09227749 42.65830921 2.09487724 46.26983833 C2.09673094 47.65060329 2.10035049 49.031367 2.10573006 50.41212273 C2.11294447 52.33975952 2.11340809 54.26741807 2.11352539 56.19506836 C2.115746 57.29427109 2.11796661 58.39347382 2.12025452 59.52598572 C2 62 2 62 1 63 C-0.62674778 63.09340434 -2.25754051 63.11745171 -3.88696289 63.11352539 C-4.92796646 63.11344986 -5.96897003 63.11337433 -7.04151917 63.11329651 C-8.1737944 63.10813522 -9.30606964 63.10297394 -10.47265625 63.09765625 C-11.62543564 63.0962413 -12.77821503 63.09482635 -13.96592712 63.09336853 C-17.66481064 63.08775005 -21.36363464 63.07519442 -25.0625 63.0625 C-27.56315017 63.05748738 -30.06380129 63.05292406 -32.56445312 63.04882812 C-38.70965588 63.03777462 -44.85482369 63.02101852 -51 63 C-51 62.34 -51 61.68 -51 61 C-34.17 61 -17.34 61 0 61 C0 40.87 0 20.74 0 0 Z " fill="#010177" transform="translate(214,434)"/>
<path d="M0 0 C6.29273107 2.76880167 10.8791712 8.25820424 14.75 13.8125 C18.25572844 18.70308801 22.7206158 22.5085563 27.1953125 26.484375 C29.54479317 28.59170864 31.79574193 30.74300848 34 33 C33.01 33.33 32.02 33.66 31 34 C30.29875 33.28714844 29.5975 32.57429687 28.875 31.83984375 C22.51375938 25.39684549 22.51375938 25.39684549 15.8125 19.3125 C9.80983976 14.16031934 3.95561839 8.92233218 0 2 C0 1.34 0 0.68 0 0 Z " fill="#1B1874" transform="translate(309,667)"/>
<path d="M0 0 C0.66 0.33 1.32 0.66 2 1 C1.67 1.33 1.34 1.66 1 2 C0.84213692 3.85174706 0.74892644 5.7090911 0.68359375 7.56640625 C0.64169922 8.69111328 0.59980469 9.81582031 0.55664062 10.97460938 C0.51732422 12.15861328 0.47800781 13.34261719 0.4375 14.5625 C0.39431641 15.75037109 0.35113281 16.93824219 0.30664062 18.16210938 C0.20016454 21.10794784 0.09815159 24.0538743 0 27 C1.98 27 3.96 27 6 27 C6 27.66 6 28.32 6 29 C2.625 29.625 2.625 29.625 -1 30 C-4.14874039 26.85125961 -3.29476873 23.38099849 -3.32226562 19.08398438 C-3.31904297 17.92189453 -3.31582031 16.75980469 -3.3125 15.5625 C-3.32861328 14.40427734 -3.34472656 13.24605469 -3.36132812 12.05273438 C-3.36197266 10.94349609 -3.36261719 9.83425781 -3.36328125 8.69140625 C-3.36626221 7.67248291 -3.36924316 6.65355957 -3.37231445 5.60375977 C-2.95196673 2.66408209 -2.30817298 1.78787089 0 0 Z " fill="#E7D7AE" transform="translate(686,485)"/>
<path d="M0 0 C0.99 0.33 1.98 0.66 3 1 C3 24.43 3 47.86 3 72 C2.67 72 2.34 72 2 72 C2 49.89 2 27.78 2 5 C1.34 5 0.68 5 0 5 C0 3.35 0 1.7 0 0 Z " fill="#171683" transform="translate(442,523)"/>
<path d="M0 0 C0.99 0 1.98 0 3 0 C3.11644156 3.08301416 3.18732432 6.16546123 3.25 9.25 C3.30027344 10.55904297 3.30027344 10.55904297 3.3515625 11.89453125 C3.45112665 18.41598332 3.45112665 18.41598332 0.984375 21.609375 C0.32953125 22.06828125 -0.3253125 22.5271875 -1 23 C-2.27465247 20.45069506 -1.94952207 19.03650962 -1.66015625 16.2109375 C-1.56669922 15.26992188 -1.47324219 14.32890625 -1.37695312 13.359375 C-1.27318359 12.37453125 -1.16941406 11.3896875 -1.0625 10.375 C-0.96259766 9.38242187 -0.86269531 8.38984375 -0.75976562 7.3671875 C-0.51177235 4.91087319 -0.25829747 2.45524863 0 0 Z M-4 23 C-3.34 23.33 -2.68 23.66 -2 24 C-3.98 25.32 -5.96 26.64 -8 28 C-8.66 27.67 -9.32 27.34 -10 27 C-7.94766315 24.7522025 -6.99332739 23.9977758 -4 23 Z " fill="#BEB0A4" transform="translate(749,546)"/>
<path d="M0 0 C0 0.66 0 1.32 0 2 C1.093125 1.773125 2.18625 1.54625 3.3125 1.3125 C7 1 7 1 8.9375 2.4375 C9.288125 2.953125 9.63875 3.46875 10 4 C5.60155678 5.37344385 2.07495445 4.24307502 -2.25 3.0625 C-2.99507813 2.86720703 -3.74015625 2.67191406 -4.5078125 2.47070312 C-6.34079386 1.98895802 -8.17071818 1.49560775 -10 1 C-6.1496895 -1.56687367 -4.41430237 -0.83288724 0 0 Z " fill="#221E7D" transform="translate(451,753)"/>
<path d="M0 0 C-0.33 1.32 -0.66 2.64 -1 4 C-5.62 4 -10.24 4 -15 4 C-14.34 3.67 -13.68 3.34 -13 3 C-13 2.34 -13 1.68 -13 1 C-8.59085217 -0.10228696 -4.51617599 -0.07654536 0 0 Z " fill="#211F81" transform="translate(732,573)"/>
<path d="M0 0 C4.62 0 9.24 0 14 0 C10.7897878 3.2102122 7.62539686 2.98974759 3.1875 3.0625 C2.135625 3.041875 1.08375 3.02125 0 3 C0 2.01 0 1.02 0 0 Z " fill="#191780" transform="translate(850,573)"/>
<path d="M0 0 C3.3 0 6.6 0 10 0 C9.67 0.99 9.34 1.98 9 3 C6.03 3 3.06 3 0 3 C0 2.01 0 1.02 0 0 Z " fill="#1B197E" transform="translate(486,796)"/>
<path d="M0 0 C2.97 0.33 5.94 0.66 9 1 C9.33 1.99 9.66 2.98 10 4 C3.49618902 4.36814024 3.49618902 4.36814024 1.0625 2.5625 C0 1 0 1 0 0 Z " fill="#2A2782" transform="translate(462,756)"/>
<path d="M0 0 C0.66 0.33 1.32 0.66 2 1 C0.52307692 5.67692308 0.52307692 5.67692308 -2.125 7.3125 C-3.053125 7.6528125 -3.053125 7.6528125 -4 8 C-4.33 7.34 -4.66 6.68 -5 6 C-2.59016393 1.29508197 -2.59016393 1.29508197 0 0 Z " fill="#231F7D" transform="translate(715,550)"/>
<path d="M0 0 C0 3.6026412 -1.17803615 4.96901452 -3.48828125 7.63671875 C-5.72852527 9.65699049 -8.10395457 10.32650106 -11 11 C-7.33333333 7.33333333 -3.66666667 3.66666667 0 0 Z " fill="#090971" transform="translate(381,582)"/>
<path d="M0 0 C0.66 0.33 1.32 0.66 2 1 C-1.625 6.875 -1.625 6.875 -5 8 C-4.64950425 4.75791433 -4.43778819 3.38472296 -1.9375 1.1875 C-1.298125 0.795625 -0.65875 0.40375 0 0 Z " fill="#F2E9B7" transform="translate(355,563)"/>
<path d="M0 0 C0.33 0 0.66 0 1 0 C1.375 2.6875 1.375 2.6875 1 6 C-0.823983 8.06398076 -2.72763839 9.39041053 -5 11 C-3.55049545 7.2089881 -1.84827434 3.6125362 0 0 Z " fill="#25227B" transform="translate(911,574)"/>
<path d="M0 0 C2.31 0.33 4.62 0.66 7 1 C6.67 1.99 6.34 2.98 6 4 C3.69 3.67 1.38 3.34 -1 3 C-0.67 2.01 -0.34 1.02 0 0 Z " fill="#DED1AE" transform="translate(447,787)"/>
<path d="M0 0 C0.99 0.33 1.98 0.66 3 1 C3 3.97 3 6.94 3 10 C2.67 10 2.34 10 2 10 C2 8.35 2 6.7 2 5 C1.34 5 0.68 5 0 5 C0 3.35 0 1.7 0 0 Z " fill="#201F81" transform="translate(442,523)"/>
<path d="M0 0 C0.99 0.495 0.99 0.495 2 1 C2 1.66 2 2.32 2 3 C2.66 3 3.32 3 4 3 C2.25 6.875 2.25 6.875 0 8 C0 5.36 0 2.72 0 0 Z " fill="#0A086F" transform="translate(838,481)"/>
</svg>
